<svg xmlns="http://www.w3.org/2000/svg" viewBox="0 0 512 512"><defs><style>.cls-1{fill:#91d0ea;}.cls-2{fill:#313c81;}.cls-3{fill:#2d376b;}.cls-4{fill:#f1cbbc;}.cls-5{fill:#dab8ad;}.cls-6{fill:#c7a197;}.cls-7{fill:#1e2445;}.cls-8{fill:#fff;}.cls-9{fill:#5a4844;}.cls-10{fill:#6a554f;}.cls-11{fill:#b13874;}.cls-12{fill:#c6af3f;}.cls-13{fill:#e9d146;}.cls-14{fill:#9b336d;}.cls-15{fill:#3a4883;}.cls-16{fill:#3f4e9b;}.cls-17{fill:#a43573;}.cls-18{fill:#d34ea0;}.cls-19{fill:#b54b98;}.cls-20{fill:#95cf93;}</style></defs><title>Beauty</title><g id="BULINE"><path class="cls-1" d="M512,256a254.88,254.88,0,0,1-51.9,154.54Q454.46,418,448.28,425q-2.13,2.44-4.34,4.83a257,257,0,0,1-70.14,53.51q-3.35,1.74-6.75,3.38A254.8,254.8,0,0,1,256,512l-3.33,0a254.55,254.55,0,0,1-111.92-27.32q-3.41-1.72-6.75-3.55a256.53,256.53,0,0,1-78.16-65.5q-3-3.71-5.79-7.53A254.83,254.83,0,0,1,0,256C0,114.61,114.62,0,256,0S512,114.61,512,256Z"/></g><g id="Icons"><path class="cls-2" d="M207.86,13.49h98a106,106,0,0,1,106,106V367.79a75.9,75.9,0,0,1-75.9,75.9H177.8a75.9,75.9,0,0,1-75.9-75.9V119.46A106,106,0,0,1,207.86,13.49Z"/><path class="cls-3" d="M125.68,367.79V119.46a106,106,0,0,1,106-106H207.86a106,106,0,0,0-106,106V367.79a75.91,75.91,0,0,0,75.91,75.9h23.78A75.9,75.9,0,0,1,125.68,367.79Z"/><path class="cls-4" d="M367.05,451v32.37A254.47,254.47,0,0,1,252.67,512a254.55,254.55,0,0,1-111.92-27.32q-3.41-1.72-6.75-3.55V451a77.49,77.49,0,0,1,77.56-77.55H289.5A77.55,77.55,0,0,1,367.05,451Z"/><rect class="cls-5" x="217.62" y="312.59" width="65.82" height="81.17" rx="15.49"/><rect class="cls-4" x="232.84" y="312.59" width="50.59" height="81.17"/><circle class="cls-4" cx="384.67" cy="202.31" r="28.34"/><circle class="cls-5" cx="384.67" cy="202.31" r="12.25"/><circle class="cls-6" cx="113.83" cy="203.89" r="12.25"/><path class="cls-5" d="M384.66,174.75v28.34a135.42,135.42,0,0,1-270.84,0V174.75A135.42,135.42,0,0,1,249.24,39.33h0A135.42,135.42,0,0,1,384.66,174.75Z"/><path class="cls-4" d="M384.66,136.17v66.92A135.42,135.42,0,0,1,265,337.6,135.43,135.43,0,0,1,145.31,203.09V136.17a96.83,96.83,0,0,1,96.84-96.84h45.67A96.83,96.83,0,0,1,384.66,136.17Z"/><rect class="cls-7" x="179.61" y="167.8" width="30.44" height="47.24" rx="15.22"/><circle class="cls-8" cx="200.08" cy="185.64" r="7.87"/><path class="cls-7" d="M182.13,181.71H182c-.51,0-12.36-.77-17.15-11.35a2.36,2.36,0,1,1,4.3-1.95c3.62,8,13,8.58,13.1,8.59a2.36,2.36,0,0,1-.13,4.72Z"/><path class="cls-7" d="M189.06,175.15a2.3,2.3,0,0,1-.45-.05c-.34-.06-8.23-1.68-11.25-11a2.36,2.36,0,0,1,4.49-1.45c2.17,6.73,7.6,7.84,7.65,7.85a2.37,2.37,0,0,1-.44,4.69Z"/><rect class="cls-7" x="295" y="167.8" width="30.44" height="47.24" rx="15.22" transform="translate(620.44 382.83) rotate(180)"/><circle class="cls-8" cx="314.43" cy="185.64" r="7.87"/><path class="cls-7" d="M322.92,181.71H323c.51,0,12.36-.77,17.15-11.35a2.36,2.36,0,1,0-4.3-1.95c-3.62,8-13,8.58-13.1,8.59a2.36,2.36,0,0,0,.13,4.72Z"/><path class="cls-7" d="M316,175.15a2.3,2.3,0,0,0,.45-.05c.34-.06,8.23-1.68,11.25-11a2.36,2.36,0,1,0-4.49-1.45c-2.17,6.73-7.6,7.84-7.65,7.85a2.37,2.37,0,0,0,.44,4.69Z"/><rect class="cls-6" x="234.58" y="215.04" width="30.44" height="14.43" rx="7.22"/><path class="cls-9" d="M283.14,252.05v11.28a33.86,33.86,0,0,1-67.72,0V252.05Z"/><path class="cls-10" d="M283.14,252.05v11.28a33.82,33.82,0,0,1-25.85,32.89,33.87,33.87,0,0,1-25.85-32.89V252.05Z"/><path class="cls-11" d="M275.88,284.29a33.91,33.91,0,0,1-18.59,11.93,33.86,33.86,0,0,1-34.59-11.93,37.6,37.6,0,0,1,12.36-5.74,54.35,54.35,0,0,1,14.22-1.84C260,276.71,269.61,279.67,275.88,284.29Z"/><path class="cls-7" d="M167.93,156.37a3.11,3.11,0,0,1-2.08-.79,3.15,3.15,0,0,1-.29-4.45A36.49,36.49,0,0,1,217,147.87a3.15,3.15,0,1,1-4.17,4.72,30.17,30.17,0,0,0-42.53,2.71A3.16,3.16,0,0,1,167.93,156.37Z"/><path class="cls-7" d="M290.14,156.37a3.13,3.13,0,0,1-2.08-.79,3.16,3.16,0,0,1-.28-4.45,36.48,36.48,0,0,1,51.42-3.26,3.15,3.15,0,1,1-4.16,4.72,30.17,30.17,0,0,0-42.53,2.71A3.16,3.16,0,0,1,290.14,156.37Z"/><path class="cls-12" d="M397.83,306l5.27,36.61-24.16,19.28-34.53-13.28A9.65,9.65,0,0,1,341,333.9a115.54,115.54,0,0,1,22.2-22,117.24,117.24,0,0,1,21.12-12.58A9.67,9.67,0,0,1,397.83,306Z"/><path class="cls-13" d="M397.83,306l5.27,36.61-18.93,15.1L349.65,344.4a9.67,9.67,0,0,1-3.45-14.68,116.62,116.62,0,0,1,17-17.81c1.71-1.28,3.47-2.53,5.26-3.72a119.1,119.1,0,0,1,15.86-8.86A9.67,9.67,0,0,1,397.83,306Z"/><path class="cls-13" d="M397.83,306l5.27,36.61-8.86,7.07-34.53-13.27a9.66,9.66,0,0,1-3.44-14.68,118,118,0,0,1,12.16-13.5,119.1,119.1,0,0,1,15.86-8.86A9.67,9.67,0,0,1,397.83,306Z"/><path class="cls-14" d="M408.69,345.6l27.88,42.24-20.94,16.7-35-36.57c-2.54-2.66-2.85-6.53-.66-8.28l20.77-16.57C403,341.37,406.66,342.53,408.69,345.6Z"/><path class="cls-14" d="M436.57,387.84l50.27,68a10.43,10.43,0,0,1,.34,12h0a10.46,10.46,0,0,1-16.69,1l-54.85-64.34Z"/><path class="cls-11" d="M408.69,345.6l4.23,6.41,4.56,6.9,19.09,28.93-15.91,12.69-24-25-5.72-6-5.3-5.55c-2.55-2.66-2.85-6.53-.66-8.28l15.73-12.55C403,341.37,406.66,342.53,408.69,345.6Z"/><path class="cls-11" d="M436.57,387.84l33.61,45.45,4.9,6.64,11.76,15.9a10.43,10.43,0,0,1,.34,12h0a10.46,10.46,0,0,1-11.65-3l-12.83-15-5.35-6.28-36.68-43Z"/><polygon class="cls-14" points="412.92 352.01 417.48 358.91 396.71 375.48 390.99 369.5 412.92 352.01"/><polygon class="cls-14" points="470.18 433.29 475.08 439.93 462.69 449.82 457.34 443.54 470.18 433.29"/><path class="cls-15" d="M98.23,409.9,61,456.09A12.53,12.53,0,0,1,43.42,458l-14.7-11.85a12.52,12.52,0,0,1-1.9-17.6L64,382.35Z"/><path class="cls-15" d="M101.39,406l-3.16,3.93L64,382.35l3.17-3.93A4.83,4.83,0,0,1,74,377.7l26.68,21.49A4.82,4.82,0,0,1,101.39,406Z"/><path class="cls-16" d="M98.23,409.9,61,456.09A12.53,12.53,0,0,1,43.42,458l-7.52-6.06a12.52,12.52,0,0,1-1.9-17.6l37.21-46.19Z"/><path class="cls-16" d="M101.39,406l-3.16,3.93-27-21.76,3.16-3.93a4.83,4.83,0,0,1,6.79-.73l19.5,15.71A4.82,4.82,0,0,1,101.39,406Z"/><polygon class="cls-15" points="100.22 407.43 96.29 412.3 62.09 384.75 64.02 382.35 71.21 388.14 73.2 385.66 100.22 407.43"/><polygon class="cls-17" points="123.17 366.69 98.44 397.39 75.6 379 106.94 340.09 109.04 343.52 123.17 366.69"/><polygon class="cls-11" points="123.17 366.69 98.44 397.39 78.55 381.38 109.04 343.52 123.17 366.69"/><rect class="cls-18" x="101.75" y="355.78" width="5.11" height="40.58" transform="translate(258.96 17.76) rotate(38.85)"/><path class="cls-19" d="M122.32,367.36a2.2,2.2,0,0,1-.26.15c-4.48,2.23-11.09-2.83-14.7-10.78s-3.58-16.14,1.86-18.12a6.54,6.54,0,0,1,3.63-.21c4,.85,8.38,4.92,11.07,11C127.39,357.15,126.66,364.93,122.32,367.36Z"/><path class="cls-18" d="M122.32,367.36c-3.83-1-8.08-5.27-10.72-11.08-3.45-7.63-3.57-15.5,1.25-17.88,4,.85,8.38,4.92,11.07,11C127.39,357.15,126.66,364.93,122.32,367.36Z"/><path class="cls-20" d="M367.05,477.33v9.39a256.52,256.52,0,0,1-226.3-2.07q-3.41-1.72-6.75-3.55V451a77.54,77.54,0,0,1,48-71.71c20.71,24.28,78.28,83.49,156.37,95.81A184.5,184.5,0,0,0,367.05,477.33Z"/><ellipse class="cls-8" cx="441.18" cy="216.14" rx="6.33" ry="22.24" transform="translate(-49.71 196.48) rotate(-23.81)"/><ellipse class="cls-8" cx="441.18" cy="216.14" rx="22.24" ry="6.33" transform="translate(-49.71 196.48) rotate(-23.81)"/><ellipse class="cls-8" cx="64.73" cy="147.58" rx="6.33" ry="22.24" transform="translate(-54.06 38.69) rotate(-23.81)"/><ellipse class="cls-8" cx="64.73" cy="147.58" rx="22.24" ry="6.33" transform="translate(-54.06 38.69) rotate(-23.81)"/><ellipse class="cls-8" cx="44.22" cy="352.01" rx="22.24" ry="6.33" transform="translate(-303.1 279.68) rotate(-71.08)"/><ellipse class="cls-8" cx="44.22" cy="352.01" rx="6.33" ry="22.24" transform="translate(-303.1 279.68) rotate(-71.08)"/><ellipse class="cls-8" cx="388.19" cy="417.5" rx="22.24" ry="6.33" transform="translate(-132.63 649.32) rotate(-71.08)"/><ellipse class="cls-8" cx="388.19" cy="417.5" rx="6.33" ry="22.24" transform="translate(-132.63 649.32) rotate(-71.08)"/><ellipse class="cls-8" cx="356.32" cy="70" rx="22.24" ry="6.33" transform="translate(174.55 384.37) rotate(-71.08)"/><ellipse class="cls-8" cx="356.32" cy="70" rx="6.33" ry="22.24" transform="translate(174.55 384.37) rotate(-71.08)"/><path class="cls-2" d="M384.67,174h0C369.92,159.22,320.71,74,271,50.62L265,74l-51.21,42.39L120.63,140c0-82.5,42.63-126.51,96.63-126.51H303C357,13.49,418.22,85.24,384.67,174Z"/><path class="cls-3" d="M280.06,28.56s-.51,82.06-73.53,90.14a123.21,123.21,0,0,0-32.95,8,116.88,116.88,0,0,0-17.67,8.93c-28.42,17.67-40.65,52.55-30.69,84.5,5.76,18.48,10.15,48.69-7.41,78.36,0,0,3.22-50.6-22.81-86.24a48.58,48.58,0,0,1-9.07-36.58c4.38-26.21,25.17-69.68,105.49-87C191.42,88.66,265.67,78.09,280.06,28.56Z"/><ellipse class="cls-8" cx="113.83" cy="299.83" rx="6.33" ry="22.24" transform="translate(-111.34 71.46) rotate(-23.81)"/><ellipse class="cls-8" cx="113.83" cy="299.83" rx="22.24" ry="6.33" transform="translate(-111.34 71.46) rotate(-23.81)"/></g></svg>